<svg width="350" height="363" viewBox="0 0 350 363" fill="none" xmlns="http://www.w3.org/2000/svg" class="ml-auto"><rect x="109.245" width="144.422" height="167" rx="12" transform="rotate(19.3178 109.245 0)" fill="#202020"></rect><rect x="116.711" y="15.5273" width="120.058" height="118.271" rx="2.0304" transform="rotate(19.3178 116.711 15.5273)" fill="#FBFBFB"></rect><path d="M126.135 56.111L125.508 57.8994C124.098 61.9232 126.118 65.5718 129.886 66.8927C133.718 68.2361 137.447 66.6025 138.857 62.5787L139.484 60.7904C140.85 56.8943 138.935 53.3544 135.103 52.011C131.335 50.6901 127.501 52.215 126.135 56.111Z" fill="#202020"></path><path d="M184.31 76.5056L183.683 78.2939C182.273 82.3177 184.293 85.9663 188.061 87.2873C191.893 88.6306 195.621 86.9971 197.032 82.9733L197.659 81.1849C199.025 77.2888 197.11 73.7489 193.278 72.4056C189.509 71.0846 185.676 72.6095 184.31 76.5056Z" fill="#202020"></path><path d="M163.239 83.1805L163.931 81.2065C165.488 76.7651 163.563 72.8448 159.795 71.5238C155.963 70.1804 152.139 72.0858 150.582 76.5271L149.89 78.5011C148.383 82.8015 150.205 86.6066 154.037 87.9499C157.805 89.2709 161.732 87.4809 163.239 83.1805Z" fill="#202020"></path><path fill-rule="evenodd" clip-rule="evenodd" d="M125.399 86.1098C128.077 84.1736 131.817 84.7749 133.753 87.4527L148.063 107.244L169.713 101.241C172.898 100.358 176.195 102.224 177.078 105.409C177.96 108.593 176.095 111.89 172.91 112.773L147.251 119.887C144.841 120.555 142.269 119.654 140.804 117.627L124.056 94.4643C122.12 91.7865 122.721 88.046 125.399 86.1098Z" fill="#202020"></path><rect x="168.877" y="138" width="181.136" height="209.453" rx="15.0505" transform="rotate(5.11083 168.877 138)" fill="#202020"></rect><rect x="182.734" y="154.58" width="150.577" height="148.336" rx="2.54654" transform="rotate(5.11083 182.734 154.58)" fill="#FBFBFB"></rect><path d="M206.684 201.02L206.473 203.387C205.996 208.714 209.576 212.528 214.564 212.974C219.637 213.428 223.667 210.294 224.143 204.968L224.355 202.6C224.816 197.443 221.399 193.728 216.326 193.274C211.337 192.828 207.146 195.862 206.684 201.02Z" fill="#202020"></path><path d="M283.693 207.91L283.482 210.278C283.005 215.604 286.584 219.419 291.573 219.865C296.646 220.318 300.676 217.185 301.152 211.858L301.364 209.491C301.825 204.333 298.407 200.619 293.335 200.165C288.346 199.719 284.155 202.753 283.693 207.91Z" fill="#202020"></path><path d="M260.129 222.508L260.363 219.895C260.889 214.016 257.342 209.842 252.353 209.396C247.28 208.942 243.218 212.435 242.692 218.315L242.459 220.928C241.949 226.62 245.336 230.686 250.409 231.14C255.397 231.586 259.62 228.201 260.129 222.508Z" fill="#202020"></path><path d="M249.876 247.789L247.252 247.789C241.349 247.789 237.508 251.694 237.508 256.702C237.508 261.795 241.349 265.53 247.252 265.53L249.876 265.53C255.591 265.53 259.339 261.795 259.339 256.702C259.339 251.694 255.591 247.789 249.876 247.789Z" fill="#202020"></path><path fill-rule="evenodd" clip-rule="evenodd" d="M111.359 197.878C114.391 199.107 115.853 202.562 114.624 205.595L110.451 215.89C109.222 218.922 105.767 220.384 102.734 219.155C99.7019 217.926 98.2401 214.471 99.4693 211.438L103.642 201.143C104.872 198.111 108.326 196.649 111.359 197.878Z" fill="#202020"></path><path fill-rule="evenodd" clip-rule="evenodd" d="M86.3209 259.651C89.3534 260.881 90.8152 264.335 89.586 267.368L85.4128 277.663C84.1836 280.696 80.7288 282.158 77.6963 280.928C74.6639 279.699 73.202 276.244 74.4312 273.212L78.6044 262.917C79.8336 259.884 83.2884 258.422 86.3209 259.651Z" fill="#202020"></path><path fill-rule="evenodd" clip-rule="evenodd" d="M53.0028 222.573C54.232 219.54 57.6868 218.079 60.7193 219.308L71.0146 223.481C74.0471 224.71 75.5089 228.165 74.2797 231.197C73.0505 234.23 69.5957 235.692 66.5632 234.463L56.268 230.289C53.2355 229.06 51.7736 225.605 53.0028 222.573Z" fill="#202020"></path><path fill-rule="evenodd" clip-rule="evenodd" d="M114.773 247.612C116.003 244.579 119.457 243.118 122.49 244.347L132.785 248.52C135.818 249.749 137.279 253.204 136.05 256.236C134.821 259.269 131.366 260.731 128.334 259.502L118.038 255.328C115.006 254.099 113.544 250.644 114.773 247.612Z" fill="#202020"></path><path fill-rule="evenodd" clip-rule="evenodd" d="M100.774 254.202C103.787 252.926 107.264 254.336 108.539 257.349L112.212 266.03C113.487 269.044 112.078 272.52 109.065 273.795C106.051 275.07 102.574 273.661 101.299 270.648L97.6261 261.967C96.351 258.953 97.7602 255.477 100.774 254.202Z" fill="#202020"></path><path fill-rule="evenodd" clip-rule="evenodd" d="M128.906 224.845C130.181 227.859 128.771 231.335 125.758 232.61L117.077 236.284C114.063 237.559 110.587 236.15 109.312 233.136C108.037 230.123 109.446 226.646 112.459 225.371L121.14 221.698C124.154 220.422 127.63 221.832 128.906 224.845Z" fill="#202020"></path><path fill-rule="evenodd" clip-rule="evenodd" d="M78.2807 246.277C79.5558 249.29 78.1466 252.767 75.1331 254.042L10.0251 281.591C7.01165 282.867 3.53506 281.457 2.25995 278.444C0.984843 275.43 2.39407 271.954 5.40755 270.679L70.5155 243.129C73.529 241.854 77.0056 243.263 78.2807 246.277Z" fill="#202020"></path><path fill-rule="evenodd" clip-rule="evenodd" d="M79.9729 205.01C82.9864 203.735 86.463 205.144 87.7381 208.158L91.4114 216.839C92.6865 219.852 91.2773 223.329 88.2638 224.604C85.2503 225.879 81.7737 224.47 80.4986 221.456L76.8253 212.775C75.5502 209.762 76.9595 206.285 79.9729 205.01Z" fill="#202020"></path></svg>